  0
SECTION
  2
HEADER
  9
$ACADVER
  1
AC1027
  9
$ACADMAINTVER
 70
105
  9
$DWGCODEPAGE
  3
ANSI_1252
  9
$LASTSAVEDBY
  1
ezdxf
  9
$REQUIREDVERSIONS
160
0
  9
$INSBASE
 10
0.0
 20
0.0
 30
0.0
  9
$EXTMIN
 10
1e+20
 20
1e+20
 30
1e+20
  9
$EXTMAX
 10
-1e+20
 20
-1e+20
 30
-1e+20
  9
$LIMMIN
 10
0.0
 20
0.0
  9
$LIMMAX
 10
420.0
 20
297.0
  9
$ORTHOMODE
 70
0
  9
$REGENMODE
 70
1
  9
$FILLMODE
 70
1
  9
$QTEXTMODE
 70
0
  9
$MIRRTEXT
 70
1
  9
$LTSCALE
 40
1.0
  9
$ATTMODE
 70
1
  9
$TEXTSIZE
 40
2.5
  9
$TRACEWID
 40
1.0
  9
$TEXTSTYLE
  7
Standard
  9
$CLAYER
  8
0
  9
$CELTYPE
  6
ByLayer
  9
$CECOLOR
 62
256
  9
$CELTSCALE
 40
1.0
  9
$DISPSILH
 70
0
  9
$DIMSCALE
 40
1.0
  9
$DIMASZ
 40
2.5
  9
$DIMEXO
 40
0.625
  9
$DIMDLI
 40
3.75
  9
$DIMRND
 40
0.0
  9
$DIMDLE
 40
0.0
  9
$DIMEXE
 40
1.25
  9
$DIMTP
 40
0.0
  9
$DIMTM
 40
0.0
  9
$DIMTXT
 40
2.5
  9
$DIMCEN
 40
2.5
  9
$DIMTSZ
 40
0.0
  9
$DIMTOL
 70
0
  9
$DIMLIM
 70
0
  9
$DIMTIH
 70
0
  9
$DIMTOH
 70
0
  9
$DIMSE1
 70
0
  9
$DIMSE2
 70
0
  9
$DIMTAD
 70
1
  9
$DIMZIN
 70
8
  9
$DIMBLK
  1

  9
$DIMASO
 70
1
  9
$DIMSHO
 70
1
  9
$DIMPOST
  1

  9
$DIMAPOST
  1

  9
$DIMALT
 70
0
  9
$DIMALTD
 70
3
  9
$DIMALTF
 40
0.03937007874
  9
$DIMLFAC
 40
1.0
  9
$DIMTOFL
 70
1
  9
$DIMTVP
 40
0.0
  9
$DIMTIX
 70
0
  9
$DIMSOXD
 70
0
  9
$DIMSAH
 70
0
  9
$DIMBLK1
  1

  9
$DIMBLK2
  1

  9
$DIMSTYLE
  2
ISO-25
  9
$DIMCLRD
 70
0
  9
$DIMCLRE
 70
0
  9
$DIMCLRT
 70
0
  9
$DIMTFAC
 40
1.0
  9
$DIMGAP
 40
0.625
  9
$DIMJUST
 70
0
  9
$DIMSD1
 70
0
  9
$DIMSD2
 70
0
  9
$DIMTOLJ
 70
0
  9
$DIMTZIN
 70
8
  9
$DIMALTZ
 70
0
  9
$DIMALTTZ
 70
0
  9
$DIMUPT
 70
0
  9
$DIMDEC
 70
2
  9
$DIMTDEC
 70
2
  9
$DIMALTU
 70
2
  9
$DIMALTTD
 70
3
  9
$DIMTXSTY
  7
Standard
  9
$DIMAUNIT
 70
0
  9
$DIMADEC
 70
0
  9
$DIMALTRND
 40
0.0
  9
$DIMAZIN
 70
0
  9
$DIMDSEP
 70
44
  9
$DIMATFIT
 70
3
  9
$DIMFRAC
 70
0
  9
$DIMLDRBLK
  1

  9
$DIMLUNIT
 70
2
  9
$DIMLWD
 70
-2
  9
$DIMLWE
 70
-2
  9
$DIMTMOVE
 70
0
  9
$DIMFXL
 40
1.0
  9
$DIMFXLON
 70
0
  9
$DIMJOGANG
 40
0.785398163397
  9
$DIMTFILL
 70
0
  9
$DIMTFILLCLR
 70
0
  9
$DIMARCSYM
 70
0
  9
$DIMLTYPE
  6

  9
$DIMLTEX1
  6

  9
$DIMLTEX2
  6

  9
$DIMTXTDIRECTION
 70
0
  9
$LUNITS
 70
2
  9
$LUPREC
 70
4
  9
$SKETCHINC
 40
1.0
  9
$FILLETRAD
 40
10.0
  9
$AUNITS
 70
0
  9
$AUPREC
 70
2
  9
$MENU
  1
.
  9
$ELEVATION
 40
0.0
  9
$PELEVATION
 40
0.0
  9
$THICKNESS
 40
0.0
  9
$LIMCHECK
 70
0
  9
$CHAMFERA
 40
0.0
  9
$CHAMFERB
 40
0.0
  9
$CHAMFERC
 40
0.0
  9
$CHAMFERD
 40
0.0
  9
$SKPOLY
 70
0
  9
$TDCREATE
 40
2460724.887962963
  9
$TDUCREATE
 40
2458532.153996898
  9
$TDUPDATE
 40
2460724.887962963
  9
$TDUUPDATE
 40
2458532.1544311
  9
$TDINDWG
 40
0.0
  9
$TDUSRTIMER
 40
0.0
  9
$USRTIMER
 70
1
  9
$ANGBASE
 50
0.0
  9
$ANGDIR
 70
0
  9
$PDMODE
 70
0
  9
$PDSIZE
 40
0.0
  9
$PLINEWID
 40
0.0
  9
$SPLFRAME
 70
0
  9
$SPLINETYPE
 70
6
  9
$SPLINESEGS
 70
8
  9
$HANDSEED
  5
C8
  9
$SURFTAB1
 70
6
  9
$SURFTAB2
 70
6
  9
$SURFTYPE
 70
6
  9
$SURFU
 70
6
  9
$SURFV
 70
6
  9
$UCSBASE
  2

  9
$UCSNAME
  2

  9
$UCSORG
 10
0.0
 20
0.0
 30
0.0
  9
$UCSXDIR
 10
1.0
 20
0.0
 30
0.0
  9
$UCSYDIR
 10
0.0
 20
1.0
 30
0.0
  9
$UCSORTHOREF
  2

  9
$UCSORTHOVIEW
 70
0
  9
$UCSORGTOP
 10
0.0
 20
0.0
 30
0.0
  9
$UCSORGBOTTOM
 10
0.0
 20
0.0
 30
0.0
  9
$UCSORGLEFT
 10
0.0
 20
0.0
 30
0.0
  9
$UCSORGRIGHT
 10
0.0
 20
0.0
 30
0.0
  9
$UCSORGFRONT
 10
0.0
 20
0.0
 30
0.0
  9
$UCSORGBACK
 10
0.0
 20
0.0
 30
0.0
  9
$PUCSBASE
  2

  9
$PUCSNAME
  2

  9
$PUCSORG
 10
0.0
 20
0.0
 30
0.0
  9
$PUCSXDIR
 10
1.0
 20
0.0
 30
0.0
  9
$PUCSYDIR
 10
0.0
 20
1.0
 30
0.0
  9
$PUCSORTHOREF
  2

  9
$PUCSORTHOVIEW
 70
0
  9
$PUCSORGTOP
 10
0.0
 20
0.0
 30
0.0
  9
$PUCSORGBOTTOM
 10
0.0
 20
0.0
 30
0.0
  9
$PUCSORGLEFT
 10
0.0
 20
0.0
 30
0.0
  9
$PUCSORGRIGHT
 10
0.0
 20
0.0
 30
0.0
  9
$PUCSORGFRONT
 10
0.0
 20
0.0
 30
0.0
  9
$PUCSORGBACK
 10
0.0
 20
0.0
 30
0.0
  9
$USERI1
 70
0
  9
$USERI2
 70
0
  9
$USERI3
 70
0
  9
$USERI4
 70
0
  9
$USERI5
 70
0
  9
$USERR1
 40
0.0
  9
$USERR2
 40
0.0
  9
$USERR3
 40
0.0
  9
$USERR4
 40
0.0
  9
$USERR5
 40
0.0
  9
$WORLDVIEW
 70
1
  9
$SHADEDGE
 70
3
  9
$SHADEDIF
 70
70
  9
$TILEMODE
 70
1
  9
$MAXACTVP
 70
64
  9
$PINSBASE
 10
0.0
 20
0.0
 30
0.0
  9
$PLIMCHECK
 70
0
  9
$PEXTMIN
 10
1e+20
 20
1e+20
 30
1e+20
  9
$PEXTMAX
 10
-1e+20
 20
-1e+20
 30
-1e+20
  9
$PLIMMIN
 10
0.0
 20
0.0
  9
$PLIMMAX
 10
420.0
 20
297.0
  9
$UNITMODE
 70
0
  9
$VISRETAIN
 70
1
  9
$PLINEGEN
 70
0
  9
$PSLTSCALE
 70
1
  9
$TREEDEPTH
 70
3020
  9
$CMLSTYLE
  2
Standard
  9
$CMLJUST
 70
0
  9
$CMLSCALE
 40
20.0
  9
$PROXYGRAPHICS
 70
1
  9
$MEASUREMENT
 70
1
  9
$CELWEIGHT
370
-1
  9
$ENDCAPS
280
0
  9
$JOINSTYLE
280
0
  9
$LWDISPLAY
290
0
  9
$INSUNITS
 70
6
  9
$HYPERLINKBASE
  1

  9
$STYLESHEET
  1

  9
$XEDIT
290
1
  9
$CEPSNTYPE
380
0
  9
$PSTYLEMODE
290
1
  9
$FINGERPRINTGUID
  2
{D7A4D285-D5AF-419A-90F1-51108A940F6C}
  9
$VERSIONGUID
  2
{A7AB7BC1-31BE-43CC-B985-A093AC3E272F}
  9
$EXTNAMES
290
1
  9
$PSVPSCALE
 40
0.0
  9
$OLESTARTUP
290
0
  9
$SORTENTS
280
127
  9
$INDEXCTL
280
0
  9
$HIDETEXT
280
1
  9
$XCLIPFRAME
280
1
  9
$HALOGAP
280
0
  9
$OBSCOLOR
 70
257
  9
$OBSLTYPE
280
0
  9
$INTERSECTIONDISPLAY
280
0
  9
$INTERSECTIONCOLOR
 70
257
  9
$DIMASSOC
280
2
  9
$PROJECTNAME
  1

  9
$CAMERADISPLAY
290
0
  9
$LENSLENGTH
 40
50.0
  9
$CAMERAHEIGHT
 40
0.0
  9
$STEPSPERSEC
 40
24.0
  9
$STEPSIZE
 40
100.0
  9
$3DDWFPREC
 40
2.0
  9
$PSOLWIDTH
 40
0.005
  9
$PSOLHEIGHT
 40
0.08
  9
$LOFTANG1
 40
1.570796326795
  9
$LOFTANG2
 40
1.570796326795
  9
$LOFTMAG1
 40
0.0
  9
$LOFTMAG2
 40
0.0
  9
$LOFTPARAM
 70
7
  9
$LOFTNORMALS
280
1
  9
$LATITUDE
 40
37.795
  9
$LONGITUDE
 40
-122.394
  9
$NORTHDIRECTION
 40
0.0
  9
$TIMEZONE
 70
-8000
  9
$LIGHTGLYPHDISPLAY
280
1
  9
$TILEMODELIGHTSYNCH
280
1
  9
$CMATERIAL
347
20
  9
$SOLIDHIST
280
0
  9
$SHOWHIST
280
1
  9
$DWFFRAME
280
2
  9
$DGNFRAME
280
2
  9
$REALWORLDSCALE
290
1
  9
$INTERFERECOLOR
 62
256
  9
$CSHADOW
280
0
  9
$SHADOWPLANELOCATION
 40
0.0
  0
ENDSEC
  0
SECTION
  2
CLASSES
  0
CLASS
  1
ACDBDICTIONARYWDFLT
  2
AcDbDictionaryWithDefault
  3
ObjectDBX Classes
 90
0
 91
0
280
0
281
0
  0
CLASS
  1
SUN
  2
AcDbSun
  3
SCENEOE
 90
1153
 91
0
280
0
281
0
  0
CLASS
  1
VISUALSTYLE
  2
AcDbVisualStyle
  3
ObjectDBX Classes
 90
4095
 91
0
280
0
281
0
  0
CLASS
  1
MATERIAL
  2
AcDbMaterial
  3
ObjectDBX Classes
 90
1153
 91
0
280
0
281
0
  0
CLASS
  1
SCALE
  2
AcDbScale
  3
ObjectDBX Classes
 90
1153
 91
0
280
0
281
0
  0
CLASS
  1
TABLESTYLE
  2
AcDbTableStyle
  3
ObjectDBX Classes
 90
4095
 91
0
280
0
281
0
  0
CLASS
  1
MLEADERSTYLE
  2
AcDbMLeaderStyle
  3
ACDB_MLEADERSTYLE_CLASS
 90
4095
 91
0
280
0
281
0
  0
CLASS
  1
DICTIONARYVAR
  2
AcDbDictionaryVar
  3
ObjectDBX Classes
 90
0
 91
0
280
0
281
0
  0
CLASS
  1
CELLSTYLEMAP
  2
AcDbCellStyleMap
  3
ObjectDBX Classes
 90
1152
 91
0
280
0
281
0
  0
CLASS
  1
MENTALRAYRENDERSETTINGS
  2
AcDbMentalRayRenderSettings
  3
SCENEOE
 90
1024
 91
0
280
0
281
0
  0
CLASS
  1
ACDBDETAILVIEWSTYLE
  2
AcDbDetailViewStyle
  3
ObjectDBX Classes
 90
1025
 91
0
280
0
281
0
  0
CLASS
  1
ACDBSECTIONVIEWSTYLE
  2
AcDbSectionViewStyle
  3
ObjectDBX Classes
 90
1025
 91
0
280
0
281
0
  0
CLASS
  1
RASTERVARIABLES
  2
AcDbRasterVariables
  3
ISM
 90
0
 91
0
280
0
281
0
  0
CLASS
  1
LAYOUT
  2
AcDbLayout
  3
ObjectDBX Classes
 90
0
 91
0
280
0
281
0
  0
CLASS
  1
ACDBPLACEHOLDER
  2
AcDbPlaceHolder
  3
ObjectDBX Classes
 90
0
 91
0
280
0
281
0
  0
ENDSEC
  0
SECTION
  2
TABLES
  0
TABLE
  2
VPORT
  5
8
330
0
100
AcDbSymbolTable
 70
1
  0
VPORT
  5
23
330
8
100
AcDbSymbolTableRecord
100
AcDbViewportTableRecord
  2
*Active
 70
0
 10
0.0
 20
0.0
 11
1.0
 21
1.0
 12
0.0
 22
0.0
 13
0.0
 23
0.0
 14
0.5
 24
0.5
 15
0.5
 25
0.5
 16
0.0
 26
0.0
 36
1.0
 17
0.0
 27
0.0
 37
0.0
 40
1000.0
 41
1.34
 42
50.0
 43
0.0
 44
0.0
 50
0.0
 51
0.0
 71
0
 72
1000
 73
1
 74
3
 75
0
 76
0
 77
0
 78
0
281
0
 65
0
146
0.0
  0
ENDTAB
  0
TABLE
  2
LTYPE
  5
2
330
0
100
AcDbSymbolTable
 70
3
  0
LTYPE
  5
24
330
2
100
AcDbSymbolTableRecord
100
AcDbLinetypeTableRecord
  2
ByBlock
 70
0
  3

 72
65
 73
0
 40
0.0
  0
LTYPE
  5
25
330
2
100
AcDbSymbolTableRecord
100
AcDbLinetypeTableRecord
  2
ByLayer
 70
0
  3

 72
65
 73
0
 40
0.0
  0
LTYPE
  5
26
330
2
100
AcDbSymbolTableRecord
100
AcDbLinetypeTableRecord
  2
Continuous
 70
0
  3

 72
65
 73
0
 40
0.0
  0
ENDTAB
  0
TABLE
  2
LAYER
  5
1
330
0
100
AcDbSymbolTable
 70
2
  0
LAYER
  5
27
330
1
100
AcDbSymbolTableRecord
100
AcDbLayerTableRecord
  2
0
 70
0
 62
7
  6
Continuous
370
-3
390
13
347
21
  0
LAYER
  5
28
330
1
100
AcDbSymbolTableRecord
100
AcDbLayerTableRecord
  2
Defpoints
 70
0
 62
7
  6
Continuous
290
0
370
-3
390
13
347
21
  0
ENDTAB
  0
TABLE
  2
STYLE
  5
5
330
0
100
AcDbSymbolTable
 70
1
  0
STYLE
  5
29
330
5
100
AcDbSymbolTableRecord
100
AcDbTextStyleTableRecord
  2
Standard
 70
0
 40
0.0
 41
1.0
 50
0.0
 71
0
 42
2.5
  3
txt
  4

  0
ENDTAB
  0
TABLE
  2
VIEW
  5
7
330
0
100
AcDbSymbolTable
 70
0
  0
ENDTAB
  0
TABLE
  2
UCS
  5
6
330
0
100
AcDbSymbolTable
 70
0
  0
ENDTAB
  0
TABLE
  2
APPID
  5
3
330
0
100
AcDbSymbolTable
 70
3
  0
APPID
  5
2A
330
3
100
AcDbSymbolTableRecord
100
AcDbRegAppTableRecord
  2
ACAD
 70
0
  0
APPID
  5
C5
330
3
100
AcDbSymbolTableRecord
100
AcDbRegAppTableRecord
  2
HATCHBACKGROUNDCOLOR
 70
0
  0
APPID
  5
C6
330
3
100
AcDbSymbolTableRecord
100
AcDbRegAppTableRecord
  2
EZDXF
 70
0
  0
ENDTAB
  0
TABLE
  2
DIMSTYLE
  5
4
330
0
100
AcDbSymbolTable
 70
1
100
AcDbDimStyleTable
  0
DIMSTYLE
105
2B
330
4
100
AcDbSymbolTableRecord
100
AcDbDimStyleTableRecord
  2
Standard
 70
0
 40
1.0
 41
2.5
 42
0.625
 43
3.75
 44
1.25
 45
0.0
 46
0.0
 47
0.0
 48
0.0
 49
2.5
140
2.5
141
2.5
142
0.0
143
0.03937007874
144
1.0
145
0.0
146
1.0
147
0.625
148
0.0
 69
0
 70
0
 71
0
 72
0
 73
0
 74
0
 75
0
 76
0
 77
1
 78
8
 79
3
170
0
171
3
172
1
173
0
174
0
175
0
176
0
177
0
178
0
179
2
271
2
272
2
273
2
274
3
275
0
276
0
277
2
278
44
279
0
280
0
281
0
282
0
283
0
284
8
285
0
286
0
288
0
289
3
290
0
371
-2
372
-2
  0
ENDTAB
  0
TABLE
  2
BLOCK_RECORD
  5
9
330
0
100
AcDbSymbolTable
 70
2
  0
BLOCK_RECORD
  5
17
330
9
100
AcDbSymbolTableRecord
100
AcDbBlockTableRecord
  2
*Model_Space
340
1A
 70
0
280
1
281
0
  0
BLOCK_RECORD
  5
1B
330
9
100
AcDbSymbolTableRecord
100
AcDbBlockTableRecord
  2
*Paper_Space
340
1E
 70
0
280
1
281
0
  0
ENDTAB
  0
ENDSEC
  0
SECTION
  2
BLOCKS
  0
BLOCK
  5
18
330
17
100
AcDbEntity
  8
0
100
AcDbBlockBegin
  2
*Model_Space
 70
0
 10
0.0
 20
0.0
 30
0.0
  3
*Model_Space
  1

  0
ENDBLK
  5
19
330
17
100
AcDbEntity
  8
0
100
AcDbBlockEnd
  0
BLOCK
  5
1C
330
1B
100
AcDbEntity
  8
0
100
AcDbBlockBegin
  2
*Paper_Space
 70
0
 10
0.0
 20
0.0
 30
0.0
  3
*Paper_Space
  1

  0
ENDBLK
  5
1D
330
1B
100
AcDbEntity
  8
0
100
AcDbBlockEnd
  0
ENDSEC
  0
SECTION
  2
ENTITIES
  0
LWPOLYLINE
  5
2F
330
17
100
AcDbEntity
  8
NETWORK
100
AcDbPolyline
 90
2
 70
0
 10
50.0
 20
50.0
 10
65.74953026901477
 20
48.742570626687844
  0
LWPOLYLINE
  5
30
330
17
100
AcDbEntity
  8
NETWORK
100
AcDbPolyline
 90
2
 70
0
 10
65.74953026901477
 20
48.742570626687844
 10
79.33128882012944
 20
54.47192370667563
  0
LWPOLYLINE
  5
31
330
17
100
AcDbEntity
  8
NETWORK
100
AcDbPolyline
 90
2
 70
0
 10
79.33128882012944
 20
54.47192370667563
 10
94.88074909685412
 20
59.353548603609966
  0
LWPOLYLINE
  5
32
330
17
100
AcDbEntity
  8
NETWORK
100
AcDbPolyline
 90
2
 70
0
 10
50.0
 20
50.0
 10
41.66688497328826
 20
63.88515478036441
  0
LWPOLYLINE
  5
33
330
17
100
AcDbEntity
  8
NETWORK
100
AcDbPolyline
 90
2
 70
0
 10
41.66688497328826
 20
63.88515478036441
 10
30.217553661054474
 20
74.63324069593706
  0
LWPOLYLINE
  5
34
330
17
100
AcDbEntity
  8
NETWORK
100
AcDbPolyline
 90
2
 70
0
 10
30.217553661054474
 20
74.63324069593706
 10
17.19905628232766
 20
84.75786312489772
  0
LWPOLYLINE
  5
35
330
17
100
AcDbEntity
  8
NETWORK
100
AcDbPolyline
 90
2
 70
0
 10
50.0
 20
50.0
 10
52.989910139762074
 20
34.276048679339226
  0
LWPOLYLINE
  5
36
330
17
100
AcDbEntity
  8
NETWORK
100
AcDbPolyline
 90
2
 70
0
 10
52.989910139762074
 20
34.276048679339226
 10
62.72143875006293
 20
22.46346520538137
  0
LWPOLYLINE
  5
37
330
17
100
AcDbEntity
  8
NETWORK
100
AcDbPolyline
 90
2
 70
0
 10
62.72143875006293
 20
22.46346520538137
 10
69.88532618125673
 20
10.613353985273198
  0
LWPOLYLINE
  5
38
330
17
100
AcDbEntity
  8
NETWORK
100
AcDbPolyline
 90
2
 70
0
 10
62.72143875006293
 20
22.46346520538137
 10
47.86465830418564
 20
26.575391532777417
  0
LWPOLYLINE
  5
39
330
17
100
AcDbEntity
  8
NETWORK
100
AcDbPolyline
 90
2
 70
0
 10
47.86465830418564
 20
26.575391532777417
 10
32.37550419098431
 20
24.295586656055857
  0
LWPOLYLINE
  5
3A
330
17
100
AcDbEntity
  8
NETWORK
100
AcDbPolyline
 90
2
 70
0
 10
32.37550419098431
 20
24.295586656055857
 10
16.467042479559368
 20
20.74202145698756
  0
LWPOLYLINE
  5
3B
330
17
100
AcDbEntity
  8
NETWORK
100
AcDbPolyline
 90
2
 70
0
 10
17.19905628232766
 20
84.75786312489772
 10
32.70363142187992
 20
83.70880607149212
  0
LWPOLYLINE
  5
3C
330
17
100
AcDbEntity
  8
NETWORK
100
AcDbPolyline
 90
2
 70
0
 10
32.70363142187992
 20
83.70880607149212
 10
47.94485956511874
 20
89.77972644813381
  0
LWPOLYLINE
  5
3D
330
17
100
AcDbEntity
  8
NETWORK
100
AcDbPolyline
 90
2
 70
0
 10
47.94485956511874
 20
89.77972644813381
 10
61.264505918224344
 20
94.51378970281871
  0
LWPOLYLINE
  5
3E
330
17
100
AcDbEntity
  8
NETWORK
100
AcDbPolyline
 90
2
 70
0
 10
94.88074909685412
 20
59.353548603609966
 10
98.48999815138043
 20
72.38860584536522
  0
LWPOLYLINE
  5
3F
330
17
100
AcDbEntity
  8
NETWORK
100
AcDbPolyline
 90
2
 70
0
 10
98.48999815138043
 20
72.38860584536522
 10
95.14352196668901
 20
88.34982833675943
  0
LWPOLYLINE
  5
40
330
17
100
AcDbEntity
  8
NETWORK
100
AcDbPolyline
 90
2
 70
0
 10
95.14352196668901
 20
88.34982833675943
 10
92.08153294744496
 20
104.30957177638426
  0
LWPOLYLINE
  5
41
330
17
100
AcDbEntity
  8
NETWORK
100
AcDbPolyline
 90
2
 70
0
 10
17.19905628232766
 20
84.75786312489772
 10
26.793452283965543
 20
71.92853012781401
  0
LWPOLYLINE
  5
42
330
17
100
AcDbEntity
  8
NETWORK
100
AcDbPolyline
 90
2
 70
0
 10
26.793452283965543
 20
71.92853012781401
 10
39.4289997852061
 20
65.67074802635582
  0
LWPOLYLINE
  5
43
330
17
100
AcDbEntity
  8
NETWORK
100
AcDbPolyline
 90
2
 70
0
 10
39.4289997852061
 20
65.67074802635582
 10
52.144548588482095
 20
59.88365528477346
  0
LWPOLYLINE
  5
44
330
17
100
AcDbEntity
  8
NETWORK
100
AcDbPolyline
 90
2
 70
0
 10
32.37550419098431
 20
24.295586656055857
 10
28.50689463080755
 20
39.98757954709941
  0
LWPOLYLINE
  5
45
330
17
100
AcDbEntity
  8
NETWORK
100
AcDbPolyline
 90
2
 70
0
 10
28.50689463080755
 20
39.98757954709941
 10
20.50096324612595
 20
51.307165860465716
  0
LWPOLYLINE
  5
46
330
17
100
AcDbEntity
  8
NETWORK
100
AcDbPolyline
 90
2
 70
0
 10
20.50096324612595
 20
51.307165860465716
 10
13.598415522003894
 20
63.49903712393827
  0
LWPOLYLINE
  5
47
330
17
100
AcDbEntity
  8
NETWORK
100
AcDbPolyline
 90
2
 70
0
 10
47.94485956511874
 20
89.77972644813381
 10
33.16423856208111
 20
91.5955261260386
  0
LWPOLYLINE
  5
48
330
17
100
AcDbEntity
  8
NETWORK
100
AcDbPolyline
 90
2
 70
0
 10
33.16423856208111
 20
91.5955261260386
 10
18.955410820389773
 20
86.3732672772596
  0
LWPOLYLINE
  5
49
330
17
100
AcDbEntity
  8
NETWORK
100
AcDbPolyline
 90
2
 70
0
 10
18.955410820389773
 20
86.3732672772596
 10
5.3844183533786065
 20
81.22284916493706
  0
LWPOLYLINE
  5
4A
330
17
100
AcDbEntity
  8
NETWORK
100
AcDbPolyline
 90
2
 70
0
 10
94.88074909685412
 20
59.353548603609966
 10
106.81629006893438
 20
52.142485750417755
  0
LWPOLYLINE
  5
4B
330
17
100
AcDbEntity
  8
NETWORK
100
AcDbPolyline
 90
2
 70
0
 10
106.81629006893438
 20
52.142485750417755
 10
120.00846621562124
 20
48.386397845515795
  0
LWPOLYLINE
  5
4C
330
17
100
AcDbEntity
  8
NETWORK
100
AcDbPolyline
 90
2
 70
0
 10
120.00846621562124
 20
48.386397845515795
 10
134.2840120185458
 20
44.713017545430674
  0
LWPOLYLINE
  5
4D
330
17
100
AcDbEntity
  8
NETWORK
100
AcDbPolyline
 90
2
 70
0
 10
106.81629006893438
 20
52.142485750417755
 10
99.63986435585286
 20
40.50699258024089
  0
LWPOLYLINE
  5
4E
330
17
100
AcDbEntity
  8
NETWORK
100
AcDbPolyline
 90
2
 70
0
 10
99.63986435585286
 20
40.50699258024089
 10
96.893509938415
 20
26.044587155409282
  0
LWPOLYLINE
  5
4F
330
17
100
AcDbEntity
  8
NETWORK
100
AcDbPolyline
 90
2
 70
0
 10
96.893509938415
 20
26.044587155409282
 10
92.65324692846545
 20
11.833242710384159
  0
LWPOLYLINE
  5
50
330
17
100
AcDbEntity
  8
NETWORK
100
AcDbPolyline
 90
2
 70
0
 10
61.264505918224344
 20
94.51378970281871
 10
49.65835283099446
 20
101.95748455548072
  0
LWPOLYLINE
  5
51
330
17
100
AcDbEntity
  8
NETWORK
100
AcDbPolyline
 90
2
 70
0
 10
49.65835283099446
 20
101.95748455548072
 10
33.64941757489194
 20
102.82560983741524
  0
LWPOLYLINE
  5
52
330
17
100
AcDbEntity
  8
NETWORK
100
AcDbPolyline
 90
2
 70
0
 10
33.64941757489194
 20
102.82560983741524
 10
17.443169508277776
 20
104.92580259476878
  0
LWPOLYLINE
  5
53
330
17
100
AcDbEntity
  8
NETWORK
100
AcDbPolyline
 90
2
 70
0
 10
52.989910139762074
 20
34.276048679339226
 10
59.10206851558232
 20
47.83227596744317
  0
LWPOLYLINE
  5
54
330
17
100
AcDbEntity
  8
NETWORK
100
AcDbPolyline
 90
2
 70
0
 10
59.10206851558232
 20
47.83227596744317
 10
60.10073590666283
 20
61.873000583989864
  0
LWPOLYLINE
  5
55
330
17
100
AcDbEntity
  8
NETWORK
100
AcDbPolyline
 90
2
 70
0
 10
60.10073590666283
 20
61.873000583989864
 10
60.957144103849735
 20
76.71229490813886
  0
LWPOLYLINE
  5
56
330
17
100
AcDbEntity
  8
NETWORK
100
AcDbPolyline
 90
2
 70
0
 10
33.64941757489194
 20
102.82560983741524
 10
46.41559006154465
 20
109.343517241109
  0
LWPOLYLINE
  5
57
330
17
100
AcDbEntity
  8
NETWORK
100
AcDbPolyline
 90
2
 70
0
 10
46.41559006154465
 20
109.343517241109
 10
54.50421787601176
 20
121.15208322730801
  0
LWPOLYLINE
  5
58
330
17
100
AcDbEntity
  8
NETWORK
100
AcDbPolyline
 90
2
 70
0
 10
54.50421787601176
 20
121.15208322730801
 10
65.4163711747712
 20
131.2849757568774
  0
LWPOLYLINE
  5
59
330
17
100
AcDbEntity
  8
NETWORK
100
AcDbPolyline
 90
2
 70
0
 10
17.443169508277776
 20
104.92580259476878
 10
9.040620357761366
 20
92.56864412586525
  0
LWPOLYLINE
  5
5A
330
17
100
AcDbEntity
  8
NETWORK
100
AcDbPolyline
 90
2
 70
0
 10
9.040620357761366
 20
92.56864412586525
 10
7.392102161720386
 20
78.50205789544894
  0
LWPOLYLINE
  5
5B
330
17
100
AcDbEntity
  8
NETWORK
100
AcDbPolyline
 90
2
 70
0
 10
7.392102161720386
 20
78.50205789544894
 10
5.527873989726885
 20
62.21529766646365
  0
LWPOLYLINE
  5
5C
330
17
100
AcDbEntity
  8
NETWORK
100
AcDbPolyline
 90
2
 70
0
 10
18.955410820389773
 20
86.3732672772596
 10
13.85340153507254
 20
100.35067767336865
  0
LWPOLYLINE
  5
5D
330
17
100
AcDbEntity
  8
NETWORK
100
AcDbPolyline
 90
2
 70
0
 10
13.85340153507254
 20
100.35067767336865
 10
5.356968880858158
 20
111.99382379512689
  0
LWPOLYLINE
  5
5E
330
17
100
AcDbEntity
  8
NETWORK
100
AcDbPolyline
 90
2
 70
0
 10
5.356968880858158
 20
111.99382379512689
 10
-4.8115802018210925
 20
122.12263864183555
  0
LWPOLYLINE
  5
5F
330
17
100
AcDbEntity
  8
NETWORK
100
AcDbPolyline
 90
2
 70
0
 10
47.86465830418564
 20
26.575391532777417
 10
44.17558554734935
 20
11.166559308639298
  0
LWPOLYLINE
  5
60
330
17
100
AcDbEntity
  8
NETWORK
100
AcDbPolyline
 90
2
 70
0
 10
44.17558554734935
 20
11.166559308639298
 10
46.10158845747744
 20
-2.4778826860039818
  0
LWPOLYLINE
  5
61
330
17
100
AcDbEntity
  8
NETWORK
100
AcDbPolyline
 90
2
 70
0
 10
46.10158845747744
 20
-2.4778826860039818
 10
50.4583659000415
 20
-18.113880163570364
  0
LWPOLYLINE
  5
62
330
17
100
AcDbEntity
  8
NETWORK
100
AcDbPolyline
 90
2
 70
0
 10
26.793452283965543
 20
71.92853012781401
 10
35.74758486699812
 20
85.43515663344309
  0
LWPOLYLINE
  5
63
330
17
100
AcDbEntity
  8
NETWORK
100
AcDbPolyline
 90
2
 70
0
 10
35.74758486699812
 20
85.43515663344309
 10
38.69965321240726
 20
100.59945015460679
  0
LWPOLYLINE
  5
64
330
17
100
AcDbEntity
  8
NETWORK
100
AcDbPolyline
 90
2
 70
0
 10
38.69965321240726
 20
100.59945015460679
 10
42.85455423021946
 20
116.22994534510603
  0
LWPOLYLINE
  5
65
330
17
100
AcDbEntity
  8
NETWORK
100
AcDbPolyline
 90
2
 70
0
 10
98.48999815138043
 20
72.38860584536522
 10
101.82894118504505
 20
58.52505424782797
  0
LWPOLYLINE
  5
66
330
17
100
AcDbEntity
  8
NETWORK
100
AcDbPolyline
 90
2
 70
0
 10
101.82894118504505
 20
58.52505424782797
 10
110.16675291572146
 20
45.648758803478266
  0
LWPOLYLINE
  5
67
330
17
100
AcDbEntity
  8
NETWORK
100
AcDbPolyline
 90
2
 70
0
 10
110.16675291572146
 20
45.648758803478266
 10
118.49238475170763
 20
31.54085162133464
  0
LWPOLYLINE
  5
68
330
17
100
AcDbEntity
  8
NETWORK
100
AcDbPolyline
 90
2
 70
0
 10
44.17558554734935
 20
11.166559308639298
 10
35.98272278887329
 20
-1.9302881973680304
  0
LWPOLYLINE
  5
69
330
17
100
AcDbEntity
  8
NETWORK
100
AcDbPolyline
 90
2
 70
0
 10
35.98272278887329
 20
-1.9302881973680304
 10
33.400096433880165
 20
-15.99769012961933
  0
LWPOLYLINE
  5
6A
330
17
100
AcDbEntity
  8
NETWORK
100
AcDbPolyline
 90
2
 70
0
 10
33.400096433880165
 20
-15.99769012961933
 10
28.754803332467823
 20
-31.762310225530875
  0
LWPOLYLINE
  5
6B
330
17
100
AcDbEntity
  8
NETWORK
100
AcDbPolyline
 90
2
 70
0
 10
110.16675291572146
 20
45.648758803478266
 10
103.87760529829414
 20
60.726964529321165
  0
LWPOLYLINE
  5
6C
330
17
100
AcDbEntity
  8
NETWORK
100
AcDbPolyline
 90
2
 70
0
 10
103.87760529829414
 20
60.726964529321165
 10
95.3466502287103
 20
71.41795585198838
  0
LWPOLYLINE
  5
6D
330
17
100
AcDbEntity
  8
NETWORK
100
AcDbPolyline
 90
2
 70
0
 10
95.3466502287103
 20
71.41795585198838
 10
86.08427158463681
 20
82.42385411313872
  0
LWPOLYLINE
  5
6E
330
17
100
AcDbEntity
  8
NETWORK
100
AcDbPolyline
 90
2
 70
0
 10
46.41559006154465
 20
109.343517241109
 10
61.41473316810732
 20
103.6708993792126
  0
LWPOLYLINE
  5
6F
330
17
100
AcDbEntity
  8
NETWORK
100
AcDbPolyline
 90
2
 70
0
 10
61.41473316810732
 20
103.6708993792126
 10
77.69167267297045
 20
102.18845273914536
  0
LWPOLYLINE
  5
70
330
17
100
AcDbEntity
  8
NETWORK
100
AcDbPolyline
 90
2
 70
0
 10
77.69167267297045
 20
102.18845273914536
 10
91.32176294993387
 20
103.49423605696319
  0
LWPOLYLINE
  5
71
330
17
100
AcDbEntity
  8
NETWORK
100
AcDbPolyline
 90
2
 70
0
 10
59.10206851558232
 20
47.83227596744317
 10
72.68633277611642
 20
53.46881704366318
  0
LWPOLYLINE
  5
72
330
17
100
AcDbEntity
  8
NETWORK
100
AcDbPolyline
 90
2
 70
0
 10
72.68633277611642
 20
53.46881704366318
 10
83.31895700075529
 20
62.56697241641126
  0
LWPOLYLINE
  5
73
330
17
100
AcDbEntity
  8
NETWORK
100
AcDbPolyline
 90
2
 70
0
 10
83.31895700075529
 20
62.56697241641126
 10
93.59433565778552
 20
71.82788196429594
  0
LWPOLYLINE
  5
74
330
17
100
AcDbEntity
  8
NETWORK
100
AcDbPolyline
 90
2
 70
0
 10
38.69965321240726
 20
100.59945015460679
 10
28.206692553086206
 20
111.23696100454735
  0
LWPOLYLINE
  5
75
330
17
100
AcDbEntity
  8
NETWORK
100
AcDbPolyline
 90
2
 70
0
 10
28.206692553086206
 20
111.23696100454735
 10
13.10828920321075
 20
116.93045611090442
  0
LWPOLYLINE
  5
76
330
17
100
AcDbEntity
  8
NETWORK
100
AcDbPolyline
 90
2
 70
0
 10
13.10828920321075
 20
116.93045611090442
 10
-0.18076505251187847
 20
122.21154278078119
  0
LWPOLYLINE
  5
77
330
17
100
AcDbEntity
  8
NETWORK
100
AcDbPolyline
 90
2
 70
0
 10
5.527873989726885
 20
62.21529766646365
 10
16.90843244240608
 20
70.09315698096123
  0
LWPOLYLINE
  5
78
330
17
100
AcDbEntity
  8
NETWORK
100
AcDbPolyline
 90
2
 70
0
 10
16.90843244240608
 20
70.09315698096123
 10
25.749103810187506
 20
80.80825583797927
  0
LWPOLYLINE
  5
79
330
17
100
AcDbEntity
  8
NETWORK
100
AcDbPolyline
 90
2
 70
0
 10
25.749103810187506
 20
80.80825583797927
 10
35.250380318049665
 20
92.40461024766273
  0
LWPOLYLINE
  5
7A
330
17
100
AcDbEntity
  8
NETWORK
100
AcDbPolyline
 90
2
 70
0
 10
30.217553661054474
 20
74.63324069593706
 10
26.160120123628996
 20
60.76471500207097
  0
LWPOLYLINE
  5
7B
330
17
100
AcDbEntity
  8
NETWORK
100
AcDbPolyline
 90
2
 70
0
 10
26.160120123628996
 20
60.76471500207097
 10
28.891097543255583
 20
44.77254898909651
  0
LWPOLYLINE
  5
7C
330
17
100
AcDbEntity
  8
NETWORK
100
AcDbPolyline
 90
2
 70
0
 10
28.891097543255583
 20
44.77254898909651
 10
31.10038088970047
 20
31.025813463575172
  0
LWPOLYLINE
  5
7D
330
17
100
AcDbEntity
  8
NETWORK
100
AcDbPolyline
 90
2
 70
0
 10
86.08427158463681
 20
82.42385411313872
 10
71.17871192788297
 20
82.40792036294992
  0
LWPOLYLINE
  5
7E
330
17
100
AcDbEntity
  8
NETWORK
100
AcDbPolyline
 90
2
 70
0
 10
71.17871192788297
 20
82.40792036294992
 10
55.59311129129938
 20
77.66297372733952
  0
LWPOLYLINE
  5
7F
330
17
100
AcDbEntity
  8
NETWORK
100
AcDbPolyline
 90
2
 70
0
 10
55.59311129129938
 20
77.66297372733952
 10
41.842092795481896
 20
71.51578659915116
  0
LWPOLYLINE
  5
80
330
17
100
AcDbEntity
  8
NETWORK
100
AcDbPolyline
 90
2
 70
0
 10
61.41473316810732
 20
103.6708993792126
 10
49.89000284149006
 20
93.54589514556798
  0
LWPOLYLINE
  5
81
330
17
100
AcDbEntity
  8
NETWORK
100
AcDbPolyline
 90
2
 70
0
 10
49.89000284149006
 20
93.54589514556798
 10
41.180506400027085
 20
80.42336746441778
  0
LWPOLYLINE
  5
82
330
17
100
AcDbEntity
  8
NETWORK
100
AcDbPolyline
 90
2
 70
0
 10
41.180506400027085
 20
80.42336746441778
 10
34.24123407509266
 20
67.12397173240342
  0
LWPOLYLINE
  5
83
330
17
100
AcDbEntity
  8
NETWORK
100
AcDbPolyline
 90
2
 70
0
 10
52.989910139762074
 20
34.276048679339226
 10
58.56069151696205
 20
47.11700170490742
  0
LWPOLYLINE
  5
84
330
17
100
AcDbEntity
  8
NETWORK
100
AcDbPolyline
 90
2
 70
0
 10
58.56069151696205
 20
47.11700170490742
 10
59.494880389766514
 20
60.837329959131736
  0
LWPOLYLINE
  5
85
330
17
100
AcDbEntity
  8
NETWORK
100
AcDbPolyline
 90
2
 70
0
 10
59.494880389766514
 20
60.837329959131736
 10
60.31736020436871
 20
74.8722027682637
  0
LWPOLYLINE
  5
86
330
17
100
AcDbEntity
  8
NETWORK
100
AcDbPolyline
 90
2
 70
0
 10
5.356968880858158
 20
111.99382379512689
 10
18.81176115690251
 20
104.39321782702424
  0
LWPOLYLINE
  5
87
330
17
100
AcDbEntity
  8
NETWORK
100
AcDbPolyline
 90
2
 70
0
 10
18.81176115690251
 20
104.39321782702424
 10
35.089825327228326
 20
102.7376197317409
  0
LWPOLYLINE
  5
88
330
17
100
AcDbEntity
  8
NETWORK
100
AcDbPolyline
 90
2
 70
0
 10
35.089825327228326
 20
102.7376197317409
 10
48.66071904237756
 20
99.72034725757634
  0
LWPOLYLINE
  5
89
330
17
100
AcDbEntity
  8
NETWORK
100
AcDbPolyline
 90
2
 70
0
 10
13.85340153507254
 20
100.35067767336865
 10
1.0455228634954192
 20
108.34147581148683
  0
LWPOLYLINE
  5
8A
330
17
100
AcDbEntity
  8
NETWORK
100
AcDbPolyline
 90
2
 70
0
 10
1.0455228634954192
 20
108.34147581148683
 10
-14.836599216306478
 20
112.45057126160052
  0
LWPOLYLINE
  5
8B
330
17
100
AcDbEntity
  8
NETWORK
100
AcDbPolyline
 90
2
 70
0
 10
-14.836599216306478
 20
112.45057126160052
 10
-30.26969022357851
 20
116.62941333374022
  0
LWPOLYLINE
  5
8C
330
17
100
AcDbEntity
  8
NETWORK
100
AcDbPolyline
 90
2
 70
0
 10
18.955410820389773
 20
86.3732672772596
 10
30.035670936282237
 20
77.89843813682248
  0
LWPOLYLINE
  5
8D
330
17
100
AcDbEntity
  8
NETWORK
100
AcDbPolyline
 90
2
 70
0
 10
30.035670936282237
 20
77.89843813682248
 10
44.396894972684166
 20
72.46361808624867
  0
LWPOLYLINE
  5
8E
330
17
100
AcDbEntity
  8
NETWORK
100
AcDbPolyline
 90
2
 70
0
 10
44.396894972684166
 20
72.46361808624867
 10
59.38436360536225
 20
69.7697504908385
  0
LWPOLYLINE
  5
8F
330
17
100
AcDbEntity
  8
NETWORK
100
AcDbPolyline
 90
2
 70
0
 10
61.41473316810732
 20
103.6708993792126
 10
75.91362195195471
 20
103.55307206534292
  0
LWPOLYLINE
  5
90
330
17
100
AcDbEntity
  8
NETWORK
100
AcDbPolyline
 90
2
 70
0
 10
75.91362195195471
 20
103.55307206534292
 10
88.11176606156658
 20
110.24476656786348
  0
LWPOLYLINE
  5
91
330
17
100
AcDbEntity
  8
NETWORK
100
AcDbPolyline
 90
2
 70
0
 10
88.11176606156658
 20
110.24476656786348
 10
103.15512859422537
 20
116.93971654365744
  0
LWPOLYLINE
  5
92
330
17
100
AcDbEntity
  8
NETWORK
100
AcDbPolyline
 90
2
 70
0
 10
77.69167267297045
 20
102.18845273914536
 10
73.98337956383696
 20
116.8537441153732
  0
LWPOLYLINE
  5
93
330
17
100
AcDbEntity
  8
NETWORK
100
AcDbPolyline
 90
2
 70
0
 10
73.98337956383696
 20
116.8537441153732
 10
66.13999561302326
 20
129.23081530966718
  0
LWPOLYLINE
  5
94
330
17
100
AcDbEntity
  8
NETWORK
100
AcDbPolyline
 90
2
 70
0
 10
66.13999561302326
 20
129.23081530966718
 10
58.5509395782816
 20
141.32592887515864
  0
LWPOLYLINE
  5
95
330
17
100
AcDbEntity
  8
NETWORK
100
AcDbPolyline
 90
2
 70
0
 10
92.08153294744496
 20
104.30957177638426
 10
84.19793918857727
 20
90.79134861706883
  0
LWPOLYLINE
  5
96
330
17
100
AcDbEntity
  8
NETWORK
100
AcDbPolyline
 90
2
 70
0
 10
84.19793918857727
 20
90.79134861706883
 10
80.63005362337877
 20
77.49576995108467
  0
LWPOLYLINE
  5
97
330
17
100
AcDbEntity
  8
NETWORK
100
AcDbPolyline
 90
2
 70
0
 10
80.63005362337877
 20
77.49576995108467
 10
78.99058479369265
 20
62.79348963267204
  0
LWPOLYLINE
  5
98
330
17
100
AcDbEntity
  8
NETWORK
100
AcDbPolyline
 90
2
 70
0
 10
99.63986435585286
 20
40.50699258024089
 10
93.74502302358717
 20
54.40234901473393
  0
LWPOLYLINE
  5
99
330
17
100
AcDbEntity
  8
NETWORK
100
AcDbPolyline
 90
2
 70
0
 10
93.74502302358717
 20
54.40234901473393
 10
83.92871676269343
 20
66.4899499048877
  0
LWPOLYLINE
  5
9A
330
17
100
AcDbEntity
  8
NETWORK
100
AcDbPolyline
 90
2
 70
0
 10
83.92871676269343
 20
66.4899499048877
 10
71.07010953335735
 20
76.67144915295555
  0
LWPOLYLINE
  5
9B
330
17
100
AcDbEntity
  8
NETWORK
100
AcDbPolyline
 90
2
 70
0
 10
1.0455228634954192
 20
108.34147581148683
 10
-9.536983340034947
 20
97.24978936973474
  0
LWPOLYLINE
  5
9C
330
17
100
AcDbEntity
  8
NETWORK
100
AcDbPolyline
 90
2
 70
0
 10
-9.536983340034947
 20
97.24978936973474
 10
-14.690130020476083
 20
82.02647748018462
  0
LWPOLYLINE
  5
9D
330
17
100
AcDbEntity
  8
NETWORK
100
AcDbPolyline
 90
2
 70
0
 10
-14.690130020476083
 20
82.02647748018462
 10
-21.0119656849647
 20
70.05743515570849
  0
LWPOLYLINE
  5
9E
330
17
100
AcDbEntity
  8
NETWORK
100
AcDbPolyline
 90
2
 70
0
 10
1.0455228634954192
 20
108.34147581148683
 10
-7.007182292985338
 20
94.46999831111542
  0
LWPOLYLINE
  5
9F
330
17
100
AcDbEntity
  8
NETWORK
100
AcDbPolyline
 90
2
 70
0
 10
-7.007182292985338
 20
94.46999831111542
 10
-7.11201199818878
 20
79.64515166835481
  0
LWPOLYLINE
  5
A0
330
17
100
AcDbEntity
  8
NETWORK
100
AcDbPolyline
 90
2
 70
0
 10
-7.11201199818878
 20
79.64515166835481
 10
-8.517097325690315
 20
64.4337020996867
  0
LWPOLYLINE
  5
A1
330
17
100
AcDbEntity
  8
NETWORK
100
AcDbPolyline
 90
2
 70
0
 10
38.69965321240726
 20
100.59945015460679
 10
30.886813069223425
 20
113.00476705350164
  0
LWPOLYLINE
  5
A2
330
17
100
AcDbEntity
  8
NETWORK
100
AcDbPolyline
 90
2
 70
0
 10
30.886813069223425
 20
113.00476705350164
 10
18.09419936033896
 20
122.62274406423705
  0
LWPOLYLINE
  5
A3
330
17
100
AcDbEntity
  8
NETWORK
100
AcDbPolyline
 90
2
 70
0
 10
18.09419936033896
 20
122.62274406423705
 10
4.916085461134024
 20
130.1089331293786
  0
LWPOLYLINE
  5
A4
330
17
100
AcDbEntity
  8
NETWORK
100
AcDbPolyline
 90
2
 70
0
 10
110.16675291572146
 20
45.648758803478266
 10
124.33302975366416
 20
37.88833909756431
  0
LWPOLYLINE
  5
A5
330
17
100
AcDbEntity
  8
NETWORK
100
AcDbPolyline
 90
2
 70
0
 10
124.33302975366416
 20
37.88833909756431
 10
140.06358400111154
 20
35.26939499973198
  0
LWPOLYLINE
  5
A6
330
17
100
AcDbEntity
  8
NETWORK
100
AcDbPolyline
 90
2
 70
0
 10
140.06358400111154
 20
35.26939499973198
 10
155.55780220584583
 20
33.533824759615534
  0
LWPOLYLINE
  5
A7
330
17
100
AcDbEntity
  8
NETWORK
100
AcDbPolyline
 90
2
 70
0
 10
33.400096433880165
 20
-15.99769012961933
 10
24.500577356672277
 20
-28.294806816542113
  0
LWPOLYLINE
  5
A8
330
17
100
AcDbEntity
  8
NETWORK
100
AcDbPolyline
 90
2
 70
0
 10
24.500577356672277
 20
-28.294806816542113
 10
21.726856924298254
 20
-42.36613646288967
  0
LWPOLYLINE
  5
A9
330
17
100
AcDbEntity
  8
NETWORK
100
AcDbPolyline
 90
2
 70
0
 10
21.726856924298254
 20
-42.36613646288967
 10
17.98449166110898
 20
-57.83979441004832
  0
LWPOLYLINE
  5
AA
330
17
100
AcDbEntity
  8
NETWORK
100
AcDbPolyline
 90
2
 70
0
 10
140.06358400111154
 20
35.26939499973198
 10
125.23226803602984
 20
29.42826022379439
  0
LWPOLYLINE
  5
AB
330
17
100
AcDbEntity
  8
NETWORK
100
AcDbPolyline
 90
2
 70
0
 10
125.23226803602984
 20
29.42826022379439
 10
112.15986295352859
 20
19.54453494934356
  0
LWPOLYLINE
  5
AC
330
17
100
AcDbEntity
  8
NETWORK
100
AcDbPolyline
 90
2
 70
0
 10
112.15986295352859
 20
19.54453494934356
 10
100.4685829834949
 20
10.392487947196559
  0
LWPOLYLINE
  5
AD
330
17
100
AcDbEntity
  8
NETWORK
100
AcDbPolyline
 90
2
 70
0
 10
69.88532618125673
 20
10.613353985273198
 10
80.21355168246822
 20
20.653601931086484
  0
LWPOLYLINE
  5
AE
330
17
100
AcDbEntity
  8
NETWORK
100
AcDbPolyline
 90
2
 70
0
 10
80.21355168246822
 20
20.653601931086484
 10
88.13074393409495
 20
33.949370743834365
  0
LWPOLYLINE
  5
AF
330
17
100
AcDbEntity
  8
NETWORK
100
AcDbPolyline
 90
2
 70
0
 10
88.13074393409495
 20
33.949370743834365
 10
93.11717091626733
 20
47.62062430804011
  0
LWPOLYLINE
  5
B0
330
17
100
AcDbEntity
  8
NETWORK
100
AcDbPolyline
 90
2
 70
0
 10
59.38436360536225
 20
69.7697504908385
 10
44.066306842805446
 20
69.03712314781563
  0
LWPOLYLINE
  5
B1
330
17
100
AcDbEntity
  8
NETWORK
100
AcDbPolyline
 90
2
 70
0
 10
44.066306842805446
 20
69.03712314781563
 10
29.716466921690966
 20
63.65142407826909
  0
LWPOLYLINE
  5
B2
330
17
100
AcDbEntity
  8
NETWORK
100
AcDbPolyline
 90
2
 70
0
 10
29.716466921690966
 20
63.65142407826909
 10
17.359221196757744
 20
57.64958241597892
  0
LWPOLYLINE
  5
B3
330
17
100
AcDbEntity
  8
NETWORK
100
AcDbPolyline
 90
2
 70
0
 10
96.893509938415
 20
26.044587155409282
 10
98.53123856563303
 20
40.03654537307065
  0
LWPOLYLINE
  5
B4
330
17
100
AcDbEntity
  8
NETWORK
100
AcDbPolyline
 90
2
 70
0
 10
98.53123856563303
 20
40.03654537307065
 10
95.30706598612211
 20
54.03861905394077
  0
LWPOLYLINE
  5
B5
330
17
100
AcDbEntity
  8
NETWORK
100
AcDbPolyline
 90
2
 70
0
 10
95.30706598612211
 20
54.03861905394077
 10
92.56186761900439
 20
70.20883203368189
  0
LWPOLYLINE
  5
B6
330
17
100
AcDbEntity
  8
NETWORK
100
AcDbPolyline
 90
2
 70
0
 10
-14.690130020476083
 20
82.02647748018462
 10
-0.6172814235566744
 20
79.1219313753848
  0
LWPOLYLINE
  5
B7
330
17
100
AcDbEntity
  8
NETWORK
100
AcDbPolyline
 90
2
 70
0
 10
-0.6172814235566744
 20
79.1219313753848
 10
13.61750813219947
 20
80.27392310687625
  0
LWPOLYLINE
  5
B8
330
17
100
AcDbEntity
  8
NETWORK
100
AcDbPolyline
 90
2
 70
0
 10
13.61750813219947
 20
80.27392310687625
 10
27.26088476058083
 20
83.61475123778843
  0
LWPOLYLINE
  5
B9
330
17
100
AcDbEntity
  8
NETWORK
100
AcDbPolyline
 90
2
 70
0
 10
155.55780220584583
 20
33.533824759615534
 10
162.78173918995364
 20
47.368364020553756
  0
LWPOLYLINE
  5
BA
330
17
100
AcDbEntity
  8
NETWORK
100
AcDbPolyline
 90
2
 70
0
 10
162.78173918995364
 20
47.368364020553756
 10
163.47650074565186
 20
61.03161102382575
  0
LWPOLYLINE
  5
BB
330
17
100
AcDbEntity
  8
NETWORK
100
AcDbPolyline
 90
2
 70
0
 10
163.47650074565186
 20
61.03161102382575
 10
163.2363370791161
 20
77.13999398070787
  0
LWPOLYLINE
  5
BC
330
17
100
AcDbEntity
  8
NETWORK
100
AcDbPolyline
 90
2
 70
0
 10
-0.18076505251187847
 20
122.21154278078119
 10
7.722687211723337
 20
136.07678982750295
  0
LWPOLYLINE
  5
BD
330
17
100
AcDbEntity
  8
NETWORK
100
AcDbPolyline
 90
2
 70
0
 10
7.722687211723337
 20
136.07678982750295
 10
10.209315348060795
 20
149.82968365142005
  0
LWPOLYLINE
  5
BE
330
17
100
AcDbEntity
  8
NETWORK
100
AcDbPolyline
 90
2
 70
0
 10
10.209315348060795
 20
149.82968365142005
 10
11.00238389524237
 20
164.5121980347668
  0
LWPOLYLINE
  5
BF
330
17
100
AcDbEntity
  8
NETWORK
100
AcDbPolyline
 90
2
 70
0
 10
5.356968880858158
 20
111.99382379512689
 10
-7.46631592236378
 20
103.35444613923947
  0
LWPOLYLINE
  5
C0
330
17
100
AcDbEntity
  8
NETWORK
100
AcDbPolyline
 90
2
 70
0
 10
-7.46631592236378
 20
103.35444613923947
 10
-15.11326881162655
 20
89.34291422747384
  0
LWPOLYLINE
  5
C1
330
17
100
AcDbEntity
  8
NETWORK
100
AcDbPolyline
 90
2
 70
0
 10
-15.11326881162655
 20
89.34291422747384
 10
-24.5068113342519
 20
76.78936492916421
  0
LWPOLYLINE
  5
C2
330
17
100
AcDbEntity
  8
NETWORK
100
AcDbPolyline
 90
2
 70
0
 10
41.842092795481896
 20
71.51578659915116
 10
46.03371880250415
 20
85.529556899471
  0
LWPOLYLINE
  5
C3
330
17
100
AcDbEntity
  8
NETWORK
100
AcDbPolyline
 90
2
 70
0
 10
46.03371880250415
 20
85.529556899471
 10
45.28513512902953
 20
99.32992995349815
  0
LWPOLYLINE
  5
C4
330
17
100
AcDbEntity
  8
NETWORK
100
AcDbPolyline
 90
2
 70
0
 10
45.28513512902953
 20
99.32992995349815
 10
43.90096391622565
 20
113.80741930363288
  0
ENDSEC
  0
SECTION
  2
OBJECTS
  0
DICTIONARY
  5
A
330
0
100
AcDbDictionary
280
0
281
1
  3
ACAD_COLOR
350
B
  3
ACAD_GROUP
350
C
  3
ACAD_LAYOUT
350
D
  3
ACAD_MATERIAL
350
E
  3
ACAD_MLEADERSTYLE
350
F
  3
ACAD_MLINESTYLE
350
10
  3
ACAD_PLOTSETTINGS
350
11
  3
ACAD_PLOTSTYLENAME
350
12
  3
ACAD_SCALELIST
350
14
  3
ACAD_TABLESTYLE
350
15
  3
ACAD_VISUALSTYLE
350
16
  3
EZDXF_META
350
2D
  0
DICTIONARY
  5
B
330
A
100
AcDbDictionary
280
0
281
1
  0
DICTIONARY
  5
C
330
A
100
AcDbDictionary
280
0
281
1
  0
DICTIONARY
  5
D
330
A
100
AcDbDictionary
280
0
281
1
  3
Model
350
1A
  3
Layout1
350
1E
  0
DICTIONARY
  5
E
330
A
100
AcDbDictionary
280
0
281
1
  3
ByBlock
350
1F
  3
ByLayer
350
20
  3
Global
350
21
  0
DICTIONARY
  5
F
330
A
100
AcDbDictionary
280
0
281
1
  3
Standard
350
2C
  0
DICTIONARY
  5
10
330
A
100
AcDbDictionary
280
0
281
1
  3
Standard
350
22
  0
DICTIONARY
  5
11
330
A
100
AcDbDictionary
280
0
281
1
  0
ACDBDICTIONARYWDFLT
  5
12
330
A
100
AcDbDictionary
280
0
281
1
  3
Normal
350
13
100
AcDbDictionaryWithDefault
340
13
  0
ACDBPLACEHOLDER
  5
13
330
12
  0
DICTIONARY
  5
14
330
A
100
AcDbDictionary
280
0
281
1
  0
DICTIONARY
  5
15
330
A
100
AcDbDictionary
280
0
281
1
  0
DICTIONARY
  5
16
330
A
100
AcDbDictionary
280
0
281
1
  0
LAYOUT
  5
1A
330
D
100
AcDbPlotSettings
  1

  4
A3
  6

 40
7.5
 41
20.0
 42
7.5
 43
20.0
 44
420.0
 45
297.0
 46
0.0
 47
0.0
 48
0.0
 49
0.0
140
0.0
141
0.0
142
1.0
143
1.0
 70
1024
 72
1
 73
0
 74
5
  7

 75
16
 76
0
 77
2
 78
300
147
1.0
148
0.0
149
0.0
100
AcDbLayout
  1
Model
 70
1
 71
0
 10
0.0
 20
0.0
 11
420.0
 21
297.0
 12
0.0
 22
0.0
 32
0.0
 14
1e+20
 24
1e+20
 34
1e+20
 15
-1e+20
 25
-1e+20
 35
-1e+20
146
0.0
 13
0.0
 23
0.0
 33
0.0
 16
1.0
 26
0.0
 36
0.0
 17
0.0
 27
1.0
 37
0.0
 76
1
330
17
  0
LAYOUT
  5
1E
330
D
100
AcDbPlotSettings
  1

  4
A3
  6

 40
7.5
 41
20.0
 42
7.5
 43
20.0
 44
420.0
 45
297.0
 46
0.0
 47
0.0
 48
0.0
 49
0.0
140
0.0
141
0.0
142
1.0
143
1.0
 70
0
 72
1
 73
0
 74
5
  7

 75
16
 76
0
 77
2
 78
300
147
1.0
148
0.0
149
0.0
100
AcDbLayout
  1
Layout1
 70
1
 71
1
 10
0.0
 20
0.0
 11
420.0
 21
297.0
 12
0.0
 22
0.0
 32
0.0
 14
1e+20
 24
1e+20
 34
1e+20
 15
-1e+20
 25
-1e+20
 35
-1e+20
146
0.0
 13
0.0
 23
0.0
 33
0.0
 16
1.0
 26
0.0
 36
0.0
 17
0.0
 27
1.0
 37
0.0
 76
1
330
1B
  0
MATERIAL
  5
1F
102
{ACAD_REACTORS
330
E
102
}
330
E
100
AcDbMaterial
  1
ByBlock
  2

 70
0
 40
1.0
 71
1
 41
1.0
 91
-1023410177
 42
1.0
 72
1
  3

 73
1
 74
1
 75
1
 44
0.5
 73
0
 45
1.0
 46
1.0
 77
1
  4

 78
1
 79
1
170
1
 48
1.0
171
1
  6

172
1
173
1
174
1
140
1.0
141
1.0
175
1
  7

176
1
177
1
178
1
143
1.0
179
1
  8

270
1
271
1
272
1
145
1.0
146
1.0
273
1
  9

274
1
275
1
276
1
 42
1.0
 72
1
  3

 73
1
 74
1
 75
1
 94
63
  0
MATERIAL
  5
20
102
{ACAD_REACTORS
330
E
102
}
330
E
100
AcDbMaterial
  1
ByLayer
  2

 70
0
 40
1.0
 71
1
 41
1.0
 91
-1023410177
 42
1.0
 72
1
  3

 73
1
 74
1
 75
1
 44
0.5
 73
0
 45
1.0
 46
1.0
 77
1
  4

 78
1
 79
1
170
1
 48
1.0
171
1
  6

172
1
173
1
174
1
140
1.0
141
1.0
175
1
  7

176
1
177
1
178
1
143
1.0
179
1
  8

270
1
271
1
272
1
145
1.0
146
1.0
273
1
  9

274
1
275
1
276
1
 42
1.0
 72
1
  3

 73
1
 74
1
 75
1
 94
63
  0
MATERIAL
  5
21
102
{ACAD_REACTORS
330
E
102
}
330
E
100
AcDbMaterial
  1
Global
  2

 70
0
 40
1.0
 71
1
 41
1.0
 91
-1023410177
 42
1.0
 72
1
  3

 73
1
 74
1
 75
1
 44
0.5
 73
0
 45
1.0
 46
1.0
 77
1
  4

 78
1
 79
1
170
1
 48
1.0
171
1
  6

172
1
173
1
174
1
140
1.0
141
1.0
175
1
  7

176
1
177
1
178
1
143
1.0
179
1
  8

270
1
271
1
272
1
145
1.0
146
1.0
273
1
  9

274
1
275
1
276
1
 42
1.0
 72
1
  3

 73
1
 74
1
 75
1
 94
63
  0
MLINESTYLE
  5
22
102
{ACAD_REACTORS
330
10
102
}
330
10
100
AcDbMlineStyle
  2
Standard
 70
0
  3

 62
256
 51
90.0
 52
90.0
 71
2
 49
0.5
 62
256
  6
BYLAYER
 49
-0.5
 62
256
  6
BYLAYER
  0
MLEADERSTYLE
  5
2C
102
{ACAD_REACTORS
330
F
102
}
330
F
100
AcDbMLeaderStyle
179
2
170
2
171
1
172
0
 90
2
 40
0.0
 41
0.0
173
1
 91
-1056964608
 92
-2
290
1
 42
2.0
291
1
 43
8.0
  3
Standard
 44
4.0
300

342
29
174
1
175
1
176
0
178
1
 93
-1056964608
 45
4.0
292
0
297
0
 46
4.0
 94
-1056964608
 47
1.0
 49
1.0
140
1.0
294
1
141
0.0
177
0
142
1.0
295
0
296
0
143
3.75
271
0
272
9
273
9
  0
DICTIONARY
  5
2D
330
A
100
AcDbDictionary
281
1
  3
CREATED_BY_EZDXF
350
2E
  3
WRITTEN_BY_EZDXF
350
C7
  0
DICTIONARYVAR
  5
2E
330
2D
100
DictionaryVariables
280
0
  1
1.3.4 @ 2025-02-17T21:18:40.226648+00:00
  0
DICTIONARYVAR
  5
C7
330
2D
100
DictionaryVariables
280
0
  1
1.3.4 @ 2025-02-17T21:18:40.242454+00:00
  0
ENDSEC
  0
EOF
